<svg width="461.312" height="461.312" xmlns="http://www.w3.org/2000/svg">

 <g>
  <title>background</title>
  <rect fill="none" id="canvas_background" height="602" width="802" y="-1" x="-1"/>
 </g>
 <g>
  <title>Layer 1</title>
  <g fill="white" id="svg_1">
   <g id="svg_2">
    <path fill="#5395f8" id="svg_3" d="m230.656,156.416c-40.96,0 -74.24,33.28 -74.24,74.24s33.28,74.24 74.24,74.24s74.24,-33.28 74.24,-74.24s-33.28,-74.24 -74.24,-74.24zm-5.632,52.224c-9.216,0 -16.896,7.68 -16.896,16.896l-24.576,0c0.512,-23.04 18.944,-41.472 41.472,-41.472l0,24.576z"/>
   </g>
  </g>
  <g id="svg_4">
   <g id="svg_5">
    <path fill="#5395f8" id="svg_6" d="m455.936,215.296c-25.088,-31.232 -114.688,-133.12 -225.28,-133.12s-200.192,101.888 -225.28,133.12c-7.168,8.704 -7.168,21.504 0,30.72c25.088,31.232 114.688,133.12 225.28,133.12s200.192,-101.888 225.28,-133.12c7.168,-8.704 7.168,-21.504 0,-30.72zm-225.28,122.88c-59.392,0 -107.52,-48.128 -107.52,-107.52s48.128,-107.52 107.52,-107.52s107.52,48.128 107.52,107.52s-48.128,107.52 -107.52,107.52z"/>
   </g>
  </g>
  <g id="svg_7"/>
  <g id="svg_8"/>
  <g id="svg_9"/>
  <g id="svg_10"/>
  <g id="svg_11"/>
  <g id="svg_12"/>
  <g id="svg_13"/>
  <g id="svg_14"/>
  <g id="svg_15"/>
  <g id="svg_16"/>
  <g id="svg_17"/>
  <g id="svg_18"/>
  <g id="svg_19"/>
  <g id="svg_20"/>
  <g id="svg_21"/>
 </g>
</svg>