<svg width="24" height="24" viewBox="0 0 24 24" fill="none" xmlns="http://www.w3.org/2000/svg">
<path d="M23.2969 2.82422H0.703125C0.314812 2.82422 0 3.13903 0 3.52734V7.76367C0 8.15198 0.314812 8.4668 0.703125 8.4668H1.41211V20.4727C1.41211 20.861 1.72692 21.1758 2.11523 21.1758H21.8848C22.2731 21.1758 22.5879 20.861 22.5879 20.4727V8.4668H23.2969C23.6852 8.4668 24 8.15198 24 7.76367V3.52734C24 3.13903 23.6852 2.82422 23.2969 2.82422ZM21.1816 19.7695H2.81836V8.4668H21.1816V19.7695ZM22.5938 7.06055H1.40625V4.23047H22.5938V7.06055Z" fill="#767676"/>
<path d="M10.5879 14.1152H13.4121C14.5785 14.1152 15.5273 13.1663 15.5273 12C15.5273 10.8337 14.5785 9.88477 13.4121 9.88477H10.5879C9.42155 9.88477 8.47266 10.8337 8.47266 12C8.47266 13.1663 9.42155 14.1152 10.5879 14.1152ZM10.5879 11.291H13.4121C13.803 11.291 14.1211 11.6091 14.1211 12C14.1211 12.3909 13.803 12.709 13.4121 12.709H10.5879C10.197 12.709 9.87891 12.3909 9.87891 12C9.87891 11.6091 10.197 11.291 10.5879 11.291Z" fill="#767676"/>
</svg>
