<svg width="24" height="20" viewBox="0 0 24 20" fill="none" xmlns="http://www.w3.org/2000/svg">
<path d="M23.2969 0.824219H0.703125C0.314812 0.824219 0 1.13903 0 1.52734V5.76367C0 6.15198 0.314812 6.4668 0.703125 6.4668H1.41211V18.4727C1.41211 18.861 1.72692 19.1758 2.11523 19.1758H21.8848C22.2731 19.1758 22.5879 18.861 22.5879 18.4727V6.4668H23.2969C23.6852 6.4668 24 6.15198 24 5.76367V1.52734C24 1.13903 23.6852 0.824219 23.2969 0.824219ZM21.1816 17.7695H2.81836V6.4668H21.1816V17.7695ZM22.5938 5.06055H1.40625V2.23047H22.5938V5.06055Z" fill="#767676"/>
</svg>
