<svg width="16" height="16" viewBox="0 0 16 16" fill="none" xmlns="http://www.w3.org/2000/svg">
<path d="M10.6864 1.83062C8.24561 -0.610205 4.27299 -0.610205 1.83217 1.83062C-0.60812 4.27197 -0.60812 8.24405 1.83217 10.6854C4.00579 12.8585 7.39109 13.0913 9.83032 11.3944C9.88164 11.6373 9.99911 11.869 10.188 12.0579L13.7426 15.6126C14.2606 16.1295 15.0977 16.1295 15.613 15.6126C16.1305 15.0951 16.1305 14.258 15.613 13.7421L12.0584 10.1864C11.8706 9.99914 11.6383 9.88115 11.3955 9.82982C13.0934 7.39006 12.8606 4.00529 10.6864 1.83062ZM9.56417 9.56315C7.74189 11.3854 4.77618 11.3854 2.95443 9.56315C1.13321 7.74086 1.13321 4.77569 2.95443 2.9534C4.77618 1.13165 7.74189 1.13165 9.56417 2.9534C11.3865 4.77569 11.3865 7.74086 9.56417 9.56315Z" fill="black"/>
</svg>
