<?xml version="1.0"?>
<svg xmlns="http://www.w3.org/2000/svg" xmlns:xlink="http://www.w3.org/1999/xlink" xmlns:svgjs="http://svgjs.com/svgjs" version="1.1" width="512" height="512" x="0" y="0" viewBox="0 0 512 512" style="enable-background:new 0 0 512 512" xml:space="preserve" class=""><g>
<g xmlns="http://www.w3.org/2000/svg">
	<g>
		<path d="M501.609,384.603L320.543,51.265c-13.666-23.006-37.802-36.746-64.562-36.746c-26.76,0-50.896,13.74-64.562,36.746    c-0.103,0.176-0.19,0.352-0.293,0.528L10.662,384.076c-13.959,23.491-14.223,51.702-0.719,75.457    c13.535,23.769,37.919,37.948,65.266,37.948h360.544c27.347,0,52.733-14.179,66.267-37.948    C515.524,435.779,515.261,407.566,501.609,384.603z M225.951,167.148c0-16.586,13.445-30.03,30.03-30.03    c16.586,0,30.03,13.445,30.03,30.03v120.121c0,16.584-13.445,30.03-30.03,30.03s-30.03-13.447-30.03-30.03V167.148z     M255.981,437.421c-24.839,0-45.046-20.206-45.046-45.046c0-24.839,20.206-45.045,45.046-45.045    c24.839,0,45.045,20.206,45.045,45.045C301.027,417.214,280.821,437.421,255.981,437.421z" fill="#ff0000" data-original="#000000" style="" class=""/>
	</g>
</g>
<g xmlns="http://www.w3.org/2000/svg">
</g>
<g xmlns="http://www.w3.org/2000/svg">
</g>
<g xmlns="http://www.w3.org/2000/svg">
</g>
<g xmlns="http://www.w3.org/2000/svg">
</g>
<g xmlns="http://www.w3.org/2000/svg">
</g>
<g xmlns="http://www.w3.org/2000/svg">
</g>
<g xmlns="http://www.w3.org/2000/svg">
</g>
<g xmlns="http://www.w3.org/2000/svg">
</g>
<g xmlns="http://www.w3.org/2000/svg">
</g>
<g xmlns="http://www.w3.org/2000/svg">
</g>
<g xmlns="http://www.w3.org/2000/svg">
</g>
<g xmlns="http://www.w3.org/2000/svg">
</g>
<g xmlns="http://www.w3.org/2000/svg">
</g>
<g xmlns="http://www.w3.org/2000/svg">
</g>
<g xmlns="http://www.w3.org/2000/svg">
</g>
</g></svg>
